<?xml version="1.0" standalone="no"?>
<!DOCTYPE svg PUBLIC "-//W3C//DTD SVG 20010904//EN"
 "http://www.w3.org/TR/2001/REC-SVG-20010904/DTD/svg10.dtd">
<svg version="1.0" xmlns="http://www.w3.org/2000/svg"
 width="3840.000000pt" height="2160.000000pt" viewBox="0 0 3840.000000 2160.000000"
 preserveAspectRatio="xMidYMid meet">

<g transform="translate(0.000000,2160.000000) scale(0.100000,-0.100000)"
fill="#000000" stroke="none">
<path d="M18985 21149 c-2355 -100 -4561 -969 -6330 -2495 -360 -310 -786
-737 -1101 -1104 -1009 -1174 -1754 -2593 -2149 -4088 -154 -584 -249 -1132
-311 -1797 -21 -227 -31 -1228 -15 -1500 256 -4200 3041 -7842 7021 -9178 776
-261 1604 -432 2420 -501 624 -53 1336 -46 1950 19 1486 158 2915 636 4204
1407 1932 1156 3428 2902 4274 4988 137 339 290 781 343 995 27 105 37 330 19
428 -44 253 -193 466 -464 667 -390 289 -890 545 -1386 709 -158 53 -515 146
-602 157 -27 4 -50 9 -52 13 -2 3 6 78 19 166 41 284 50 423 50 780 -1 354
-12 522 -56 794 -11 68 -18 125 -17 126 2 1 79 19 173 39 617 136 1189 381
1722 737 299 200 442 344 538 544 69 143 80 193 80 390 0 207 -11 257 -146
659 -413 1234 -1051 2373 -1888 3371 -430 511 -936 1004 -1471 1431 -1569
1254 -3504 2032 -5495 2209 -418 37 -946 51 -1330 34z m820 -1120 c1862 -81
3676 -739 5165 -1873 1216 -926 2173 -2125 2807 -3516 165 -363 435 -1085 420
-1125 -7 -18 -208 -152 -352 -235 -362 -209 -801 -370 -1225 -450 -63 -12
-116 -23 -118 -25 -1 -1 13 -43 32 -92 51 -133 130 -381 170 -534 28 -106 96
-414 96 -434 0 -21 -418 -77 -705 -95 -138 -8 -647 -5 -755 5 -30 3 -113 10
-185 15 -694 57 -1349 254 -1882 566 -322 188 -560 371 -1078 828 -495 437
-719 602 -1020 750 -263 130 -494 198 -815 242 -105 15 -227 18 -755 20 -743
3 -868 -4 -1165 -68 -773 -165 -1405 -641 -1748 -1315 -143 -281 -227 -556
-278 -913 -15 -98 -17 -230 -20 -910 -3 -812 1 -929 37 -1150 170 -1063 899
-1859 1930 -2109 325 -78 430 -86 1189 -86 553 1 675 3 785 18 335 43 554 107
840 247 295 144 531 318 1020 750 353 311 452 394 652 544 714 535 1483 800
2508 865 215 14 773 6 955 -13 193 -21 471 -63 482 -74 16 -16 -76 -417 -148
-652 -43 -136 -133 -391 -145 -406 -6 -7 -47 -5 -136 7 -224 31 -360 38 -683
34 -702 -8 -1187 -109 -1665 -344 -357 -176 -529 -304 -1185 -881 -471 -414
-778 -634 -1146 -818 -475 -238 -1008 -371 -1539 -382 -257 -6 -1074 -4 -1250
3 -1034 38 -2013 487 -2665 1222 -518 584 -831 1306 -922 2130 -10 91 -13 342
-13 1035 0 823 2 930 18 1060 95 760 354 1392 800 1948 123 153 363 397 508
515 625 508 1391 798 2239 846 189 11 1205 11 1380 0 782 -48 1441 -296 2095
-787 154 -116 337 -269 600 -502 533 -471 734 -619 1075 -789 369 -183 759
-285 1280 -333 182 -16 721 -16 880 0 149 16 310 39 317 46 9 8 -106 265 -201
451 -97 189 -1139 2005 -1279 2230 -657 1050 -1672 1848 -2852 2241 -432 143
-857 229 -1314 264 -180 13 -2667 13 -2856 0 -1292 -94 -2497 -644 -3410
-1555 -305 -304 -552 -612 -763 -952 -136 -220 -1180 -2039 -1273 -2218 -714
-1381 -794 -3020 -219 -4465 72 -180 164 -382 238 -520 115 -216 1226 -2137
1308 -2263 107 -164 249 -354 384 -517 137 -166 512 -538 678 -675 823 -678
1794 -1091 2837 -1210 293 -33 505 -37 1780 -32 1350 4 1348 4 1704 58 784
119 1528 406 2189 845 608 404 1164 974 1554 1590 112 177 1199 2065 1289
2239 63 122 147 303 209 451 l9 22 108 -20 c408 -73 863 -238 1228 -447 150
-86 365 -230 365 -245 0 -7 -33 -111 -74 -232 -261 -778 -609 -1491 -1067
-2179 -1132 -1704 -2797 -2978 -4744 -3630 -745 -250 -1431 -388 -2260 -455
-214 -18 -856 -24 -1095 -11 -2136 116 -4071 905 -5664 2309 -304 268 -742
726 -1021 1067 -1537 1877 -2269 4295 -2039 6735 143 1519 668 2988 1527 4268
812 1213 1913 2224 3189 2930 1473 816 3168 1214 4853 1141z"/>
</g>
</svg>
